<?xml version="1.0" standalone="no"?>
<!DOCTYPE svg PUBLIC "-//W3C//DTD SVG 20010904//EN"
 "http://www.w3.org/TR/2001/REC-SVG-20010904/DTD/svg10.dtd">
<svg version="1.0" xmlns="http://www.w3.org/2000/svg"
 width="25.000000pt" height="35.000000pt" viewBox="0 0 44.000000 44.000000"
 preserveAspectRatio="xMidYMid meet">
<metadata>
Created by potrace 1.15, written by Peter Selinger 2001-2017
</metadata>
<g transform="translate(2.000000,53.000000) scale(0.060000,-0.060000)"
   fill="#ffffff" stroke="none">
  <path d="M0 122.501v778.998C0 968.946 55.189 1024 123.268 1024h408.824c68.52 0 123.268-54.846 123.268-122.501V122.501C655.36 55.054 600.171 0 532.092 0H123.268C54.748 0 0 54.846 0 122.501zM327.68 942.08c-22.622 0-40.96-18.338-40.96-40.96s18.338-40.96 40.96-40.96 40.96 18.338 40.96 40.96-18.338 40.96-40.96 40.96zM81.92 163.84h491.52V819.2H81.92V163.84z"></path></g>
</svg>
